<?xml version="1.0" encoding="UTF-8"?> <svg xmlns="http://www.w3.org/2000/svg" width="512" height="512" viewBox="0 0 512 512" fill="none"><path d="M94.6445 246.137L87.9172 269.557H101.288L94.6445 246.137ZM65 292.893L84.5024 231.994H107.075L126.41 292.893H107.931L104.693 281.56H84.5024L81.2644 292.893H65ZM155.636 273.902C154.278 286.594 150.612 294 140.73 294C137.241 294 135.706 293.144 135.622 293.144V281.643C135.622 281.643 136.217 281.895 137.241 281.895C140.311 281.895 142.014 278.322 142.693 270.31C142.945 267.156 143.205 248.333 143.205 248.333H180.424V292.883H165.266V258.726H156.408C156.325 264.346 156.157 269.454 155.645 273.883L155.636 273.902ZM189.579 292.893V248.342H204.737V261.629H212.915C223.904 261.629 230.203 267.929 230.203 277.391V277.643C230.203 287.096 224.5 292.893 212.32 292.893H189.579ZM204.737 282.509H208.403C212.404 282.509 214.618 281.318 214.618 277.568V277.317C214.618 273.651 212.487 272.032 208.403 272.032H204.737V282.509ZM262.509 293.916C247.259 293.916 238.149 285.914 238.149 265.044V262.746C238.149 239.494 248.971 230.04 265.496 229.361L269.757 229.193C276.652 228.942 280.485 228.337 282.365 227.742V238.982C280.234 240.005 277.424 241.029 269.162 241.448L265.579 241.615C255.782 242.043 251.018 247.663 249.734 256.689H250.245C253.055 252.26 257.233 248.854 266.091 248.854C278.355 248.854 286.878 258.391 286.878 270.915V271.595C286.878 285.393 276.233 293.907 262.518 293.907L262.509 293.916ZM262.593 282.593C268.296 282.593 271.367 278.508 271.367 271.771V271.092C271.367 264.365 268.389 260.271 262.593 260.271C256.796 260.271 253.735 264.188 253.735 270.915V271.595C253.735 278.582 256.712 282.583 262.593 282.583V282.593ZM316.345 283.616C320.691 283.616 323.929 281.15 323.929 277.317V274.591H319.928C313.796 274.591 311.07 275.782 311.07 279.448C311.07 282.006 312.772 283.625 316.355 283.625L316.345 283.616ZM311.06 293.916C303.058 293.916 295.987 289.999 295.987 280.546C295.987 270.069 304.845 265.984 319.667 265.984H323.929V264.96C323.929 260.699 322.905 257.889 318.048 257.889C313.87 257.889 312.344 260.355 312 263.174H297.69C298.369 252.446 306.799 247.161 318.988 247.161C331.177 247.161 339.086 252.185 339.086 264.03V292.902H324.263V287.71C322.133 290.948 318.215 293.926 311.06 293.926V293.916ZM422.855 293.916C409.14 293.916 398.496 285.57 398.496 271.176V270.497C398.496 256.186 409.14 247.161 422.939 247.161C436.738 247.161 447.215 255.935 447.215 270.069V270.748C447.215 285.226 436.57 293.916 422.855 293.916ZM422.939 282.593C428.643 282.593 431.713 278.331 431.713 270.925V270.245C431.713 262.746 428.736 258.577 422.939 258.577C417.142 258.577 414.081 262.578 414.081 270.078V270.757C414.081 278.424 417.058 282.593 422.939 282.593ZM392.066 256.447V242.797H347.376V256.447H361.742V293.07H376.537V256.447H392.066ZM392.066 231.743H347.376V218H392.066V231.743Z" fill="#FF592C"></path></svg> 