<svg width="110" height="106" viewBox="0 0 110 106" fill="none" xmlns="http://www.w3.org/2000/svg">
<g clip-path="url(#clip0_951_720)">
<path fill-rule="evenodd" clip-rule="evenodd" d="M16.5834 17.4162C22.6015 12.197 30.4849 9 39.145 9C47.8051 9 55.6885 12.197 61.7066 17.4204L49.5636 29.3567C46.6741 27.1498 43.0888 25.7821 39.145 25.7821C35.2012 25.7821 31.6159 27.1498 28.7264 29.3525L16.5834 17.4162ZM16.5834 67.7078L28.7264 55.7715C31.6159 57.9783 35.2012 59.3461 39.145 59.3461C43.0888 59.3461 46.6741 57.9783 49.5636 55.7757L61.7066 67.712C55.6885 72.9312 47.8051 76.1282 39.145 76.1282C30.4849 76.1282 22.6015 72.9312 16.5834 67.7078ZM52.5816 32.3227C54.8267 35.163 56.2181 38.6873 56.2181 42.5639C56.2181 46.4406 54.8267 49.9649 52.5816 52.8052L64.7246 64.7415C70.0385 58.8258 73.2909 51.0767 73.2909 42.5639C73.2909 34.0512 70.0385 26.3021 64.7289 20.3864L52.5816 32.3227ZM22.0727 42.5639C22.0727 46.4406 23.4641 49.9649 25.7092 52.8052L13.562 64.7415C8.25235 58.8258 5 51.0767 5 42.5639C5 34.0512 8.25235 26.3021 13.562 20.3864L25.7092 32.3227C23.4641 35.163 22.0727 38.6873 22.0727 42.5639Z" fill="#40BFEE"/>
<g filter="url(#filter0_bd_951_720)">
<ellipse cx="59.8554" cy="56.436" rx="34.1454" ry="33.5642" fill="white" fill-opacity="0.7" shape-rendering="crispEdges"/>
</g>
<path fill-rule="evenodd" clip-rule="evenodd" d="M40.6462 66.4749C41.5584 69.3571 43.5442 71.6765 46.2815 73.0181C46.6557 73.2015 47.1057 73.0504 47.2866 72.6807C47.4675 72.3109 47.3108 71.8625 46.9365 71.679C44.5765 70.5224 42.8706 68.5323 42.0819 66.0402C41.2932 63.5481 41.5512 60.9632 42.8303 58.7046C43.0332 58.3464 42.9035 57.8898 42.5406 57.6847C42.1778 57.4795 41.7193 57.6036 41.5164 57.9618C40.0328 60.5815 39.7341 63.5927 40.6462 66.4749ZM47.5696 70.5987C45.5215 69.5725 44.0004 67.8091 43.3207 65.6614C42.641 63.5138 42.8775 61.2182 43.9746 59.2395C44.1743 58.8795 44.6316 58.7513 44.9963 58.9533C45.3609 59.1552 45.4946 59.6107 45.295 59.9707C44.3915 61.6003 44.202 63.4753 44.7563 65.2267C45.3106 66.9781 46.5499 68.4205 48.2367 69.2657C48.6094 69.4524 48.7621 69.9021 48.5779 70.2703C48.3937 70.6384 47.9423 70.7854 47.5696 70.5987ZM53.8699 64.1003L57.2586 66.3741C57.6826 66.6586 58.2626 66.5494 58.5541 66.1302C58.8457 65.7111 58.7383 65.1406 58.3143 64.8562L54.9256 62.5824C54.5017 62.2979 53.9216 62.4071 53.6301 62.8262C53.3386 63.2454 53.4459 63.8158 53.8699 64.1003ZM60.1929 66.0205C60.3542 65.12 59.9852 64.1712 59.1708 63.6247L55.7821 61.351C54.6702 60.6049 53.1491 60.8912 52.3845 61.9905C51.6199 63.0897 51.9015 64.5857 53.0134 65.3317L56.4021 67.6055C57.3547 68.2447 58.6076 68.1261 59.4279 67.3878C63.2325 68.2521 67.2874 67.0437 69.9599 64.1585C71.6864 64.8714 73.7344 64.235 74.7295 62.5962L76.3647 59.9031C77.3202 58.3295 76.9873 56.3546 75.6686 55.1772L75.7139 55.1026C78.8105 50.0027 77.1109 43.4108 71.9357 40.3745C66.7605 37.3383 60.0513 38.9969 56.9548 44.0967L56.9095 44.1713C55.2286 43.5875 53.3005 44.2367 52.3445 45.8113L50.7093 48.5044C49.6205 50.2975 50.2047 52.6117 52.0141 53.6733C53.8235 54.7348 56.1729 54.1418 57.2617 52.3486L58.8969 49.6555C59.8519 48.0826 59.5198 46.1089 58.2027 44.9313L58.2485 44.8558C60.9092 40.4739 66.6866 39.0338 71.1572 41.6567C75.6279 44.2796 77.0808 49.9616 74.4201 54.3435L74.3749 54.418C72.6945 53.8356 70.7679 54.485 69.8123 56.0588L68.1771 58.7519C67.2647 60.2545 67.5271 62.123 68.7007 63.3137C66.5035 65.5776 63.282 66.5781 60.1929 66.0205ZM57.6031 48.8965L55.9679 51.5896C55.3091 52.6746 53.8875 53.0335 52.7926 52.3911C51.6977 51.7488 51.3442 50.3484 52.0031 49.2634L53.6383 46.5703C54.2971 45.4853 55.7187 45.1264 56.8136 45.7687C57.9085 46.4111 58.262 47.8114 57.6031 48.8965ZM75.0709 59.144L73.4357 61.8371C72.7769 62.9222 71.3552 63.281 70.2604 62.6387C69.1655 61.9963 68.812 60.596 69.4708 59.511L71.1061 56.8179C71.7649 55.7328 73.1865 55.374 74.2814 56.0163C75.3763 56.6587 75.7297 58.059 75.0709 59.144Z" fill="black"/>
</g>
<defs>
<filter id="filter0_bd_951_720" x="10.71" y="7.87183" width="108.291" height="107.128" filterUnits="userSpaceOnUse" color-interpolation-filters="sRGB">
<feFlood flood-opacity="0" result="BackgroundImageFix"/>
<feGaussianBlur in="BackgroundImageFix" stdDeviation="2.5"/>
<feComposite in2="SourceAlpha" operator="in" result="effect1_backgroundBlur_951_720"/>
<feColorMatrix in="SourceAlpha" type="matrix" values="0 0 0 0 0 0 0 0 0 0 0 0 0 0 0 0 0 0 127 0" result="hardAlpha"/>
<feOffset dx="5" dy="5"/>
<feGaussianBlur stdDeviation="10"/>
<feComposite in2="hardAlpha" operator="out"/>
<feColorMatrix type="matrix" values="0 0 0 0 0 0 0 0 0 0 0 0 0 0 0 0 0 0 0.05 0"/>
<feBlend mode="normal" in2="effect1_backgroundBlur_951_720" result="effect2_dropShadow_951_720"/>
<feBlend mode="normal" in="SourceGraphic" in2="effect2_dropShadow_951_720" result="shape"/>
</filter>
<clipPath id="clip0_951_720">
<rect width="110" height="106" fill="white"/>
</clipPath>
</defs>
</svg>
