<svg width="110" height="106" viewBox="0 0 110 106" fill="none" xmlns="http://www.w3.org/2000/svg">
<g clip-path="url(#clip0_951_710)">
<path d="M60.0842 35.7241C60.0312 35.5265 60.0112 35.3202 59.9582 35.1227C57.0902 24.4232 46.2391 18.0496 35.7165 20.868C28.125 22.9013 22.8129 29.1581 21.4973 36.4969C19.9826 36.1793 18.3781 36.1856 16.7973 36.609C11.9394 37.9102 8.85472 42.6001 9.34271 47.5151C4.05157 51.0847 1.38113 57.7807 3.14169 64.3485C5.35672 72.6118 13.756 77.5426 21.8953 75.3802L67.4605 63.176C74.895 61.1495 79.2597 53.3998 77.2344 45.8444C75.2212 38.268 67.5318 33.7469 60.0842 35.7241Z" fill="#40BFEE"/>
<g filter="url(#filter0_bd_951_710)">
<path d="M83.737 62.7243C83.737 62.5198 83.7711 62.3153 83.7711 62.1108C83.7711 51.0339 74.9401 42.0702 64.0462 42.0702C56.187 42.0702 49.4359 46.7395 46.2649 53.4879C44.884 52.7892 43.3326 52.3802 41.6959 52.3802C36.6667 52.3802 32.4728 56.1122 31.6716 60.9861C25.6365 63.0651 21.3232 68.8421 21.3232 75.6416C21.3232 84.1964 28.1596 91.1322 36.5815 91.1492H83.7541C91.4599 91.1151 97.6825 84.7587 97.6825 76.9367C97.6996 69.0977 91.4428 62.7413 83.737 62.7243Z" fill="white" fill-opacity="0.7" shape-rendering="crispEdges"/>
</g>
<path fill-rule="evenodd" clip-rule="evenodd" d="M68.0097 61.4379C65.8919 59.2484 63.0719 58.0556 60.024 58.0889C59.6097 58.0934 59.2776 58.4328 59.2821 58.8469C59.2866 59.261 59.6261 59.593 60.0404 59.5885C62.6708 59.5598 65.0963 60.5835 66.9311 62.4803C68.7658 64.3771 69.7076 66.8348 69.5902 69.4617C69.5718 69.8754 69.8923 70.2257 70.3062 70.2442C70.7201 70.2627 71.0706 69.9423 71.0891 69.5286C71.225 66.4848 70.1274 63.6274 68.0097 61.4379ZM59.9834 60.8468C62.2739 60.8422 64.4275 61.7438 66.005 63.3747C67.5825 65.0057 68.4113 67.1875 68.3296 69.4756C68.3148 69.8894 67.9671 70.213 67.5531 70.1982C67.1391 70.1834 66.8154 69.8359 66.8302 69.422C66.8976 67.5352 66.2163 65.7508 64.9264 64.4171C63.6364 63.0835 61.8752 62.3427 59.9865 62.3465C59.5722 62.3474 59.2356 62.0123 59.2348 61.5982C59.234 61.1841 59.5691 60.8477 59.9834 60.8468ZM64.0023 65.3111C62.9279 64.2004 61.4301 63.5783 59.8681 63.6437C59.4542 63.6611 59.1327 64.0106 59.1501 64.4243C59.1674 64.8381 59.517 65.1595 59.931 65.1421C61.0517 65.0951 62.138 65.5412 62.9237 66.3535C63.7111 67.1675 64.1243 68.2754 64.0728 69.3666C64.0532 69.7803 64.3729 70.1315 64.7867 70.151C65.2006 70.1705 65.5519 69.851 65.5714 69.4373C65.6426 67.9297 65.0748 66.42 64.0023 65.3111ZM60.8612 74.4966L60.8863 74.5076L66.1035 76.7314C66.1628 76.7591 66.2121 76.8043 66.2446 76.8609C66.2766 76.9165 66.2909 76.9804 66.2858 77.0441C66.1319 78.1812 65.5725 79.2249 64.71 79.9832C63.8426 80.7457 62.7278 81.1676 61.5725 81.1704C53.5469 81.1691 47.0161 74.6399 47.0152 66.619C47.0181 65.4649 47.44 64.351 48.2026 63.4843C48.9612 62.6221 50.0056 62.0628 51.1436 61.9089C51.2077 61.9038 51.272 61.9181 51.3278 61.9502C51.3848 61.983 51.4301 62.0325 51.4577 62.0919L53.6942 67.3083C53.712 67.35 53.7192 67.3954 53.715 67.4405C53.7108 67.4856 53.6954 67.529 53.6702 67.5667L53.6613 67.5801L51.81 70.4117C51.5197 70.8557 51.4855 71.42 51.7201 71.8958C52.7059 73.8955 54.3301 75.5099 56.3361 76.4837C56.8141 76.7158 57.3793 76.6776 57.8218 76.3833L60.6211 74.5216L60.6212 74.5216L60.6287 74.5166C60.6625 74.4938 60.7016 74.48 60.7423 74.4765C60.783 74.473 60.824 74.4799 60.8612 74.4966ZM65.7004 81.1098C66.8409 80.1071 67.5784 78.7245 67.7757 77.219C67.8183 76.8353 67.7375 76.4479 67.5449 76.1132C67.3524 75.7784 67.0583 75.5137 66.7051 75.3573L61.4745 73.1277C61.2046 73.0068 60.9084 72.9566 60.6137 72.982C60.319 73.0074 60.0357 73.1074 59.7905 73.2726L56.9912 75.1343C55.2851 74.3061 53.9038 72.9332 53.0655 71.2325L54.9168 68.4009C55.081 68.1555 55.1813 67.873 55.2086 67.5791C55.2358 67.2851 55.1892 66.989 55.0729 66.7176L52.8313 61.4892C52.6748 61.1361 52.41 60.8421 52.0751 60.6496C51.7402 60.4572 51.3527 60.3764 50.9688 60.4189C49.4627 60.6162 48.0796 61.3533 47.0764 62.4934C46.0733 63.6335 45.5185 65.099 45.5152 66.6172C45.5152 75.4688 52.7197 82.6704 61.5749 82.6704C63.0938 82.6671 64.5598 82.1125 65.7004 81.1098Z" fill="black"/>
</g>
<defs>
<filter id="filter0_bd_951_710" x="16.3232" y="37.0702" width="96.3594" height="69.079" filterUnits="userSpaceOnUse" color-interpolation-filters="sRGB">
<feFlood flood-opacity="0" result="BackgroundImageFix"/>
<feGaussianBlur in="BackgroundImageFix" stdDeviation="2.5"/>
<feComposite in2="SourceAlpha" operator="in" result="effect1_backgroundBlur_951_710"/>
<feColorMatrix in="SourceAlpha" type="matrix" values="0 0 0 0 0 0 0 0 0 0 0 0 0 0 0 0 0 0 127 0" result="hardAlpha"/>
<feOffset dx="5" dy="5"/>
<feGaussianBlur stdDeviation="5"/>
<feComposite in2="hardAlpha" operator="out"/>
<feColorMatrix type="matrix" values="0 0 0 0 0 0 0 0 0 0 0 0 0 0 0 0 0 0 0.05 0"/>
<feBlend mode="normal" in2="effect1_backgroundBlur_951_710" result="effect2_dropShadow_951_710"/>
<feBlend mode="normal" in="SourceGraphic" in2="effect2_dropShadow_951_710" result="shape"/>
</filter>
<clipPath id="clip0_951_710">
<rect width="110" height="106" fill="white"/>
</clipPath>
</defs>
</svg>
