<svg width="110" height="107" viewBox="0 0 110 107" fill="none" xmlns="http://www.w3.org/2000/svg">
<rect width="58.8946" height="58.9247" rx="10" transform="matrix(0.965888 -0.258962 0.258677 0.965964 6 25.2515)" fill="#40BFEF"/>
<g filter="url(#filter0_bd_951_692)">
<rect x="31.1074" y="33.073" width="58.8923" height="58.927" rx="10" fill="white" fill-opacity="0.7" shape-rendering="crispEdges"/>
</g>
<path fill-rule="evenodd" clip-rule="evenodd" d="M73.5023 67.1225L74.8354 66.8557C75.4585 66.7311 76.0192 66.3943 76.4221 65.9027C76.825 65.411 77.0453 64.7949 77.0453 64.1591V60.9138C77.0453 60.2782 76.8253 59.6622 76.4227 59.1705C76.02 58.6789 75.4596 58.342 74.8368 58.2171L73.5023 57.9503C73.3426 57.4959 73.1591 57.0502 72.9526 56.6151L73.7057 55.4861C74.0563 54.9563 74.2135 54.3218 74.1509 53.6895C74.0883 53.0573 73.8097 52.4659 73.3621 52.0153L71.067 49.7202C70.617 49.2722 70.0262 48.9933 69.3945 48.9307C68.7627 48.868 68.1287 49.0255 67.5996 49.3764L66.4713 50.1299C66.0364 49.9233 65.591 49.7397 65.1368 49.5799L64.8702 48.246C64.7456 47.6225 64.409 47.0615 63.9177 46.6584C63.4263 46.2552 62.8106 46.0349 62.1751 46.0348H58.9317C58.2965 46.0348 57.6809 46.2549 57.1895 46.6578C56.6982 47.0607 56.3615 47.6214 56.2367 48.2446L55.9701 49.5799C55.5159 49.7397 55.0705 49.9233 54.6356 50.1299L53.5073 49.3764C52.9779 49.0254 52.3437 48.8679 51.7117 48.9305C51.0797 48.9931 50.4887 49.272 50.0385 49.7202L47.7447 52.0166C47.2972 52.4671 47.0187 53.0582 46.9561 53.6902C46.8935 54.3222 47.0507 54.9565 47.4011 55.4861L48.1543 56.6151C47.9478 57.0502 47.7643 57.4959 47.6045 57.9503L46.2714 58.2171C45.6483 58.3417 45.0876 58.6785 44.6847 59.1702C44.2818 59.6618 44.0616 60.278 44.0615 60.9138V64.1591C44.0615 64.7947 44.2816 65.4107 44.6842 65.9023C45.0868 66.3939 45.6472 66.7308 46.2701 66.8557L47.6045 67.1225C47.7643 67.5769 47.9478 68.0226 48.1543 68.4578L47.4011 69.5868C47.0506 70.1165 46.8933 70.751 46.9559 71.3833C47.0185 72.0156 47.2971 72.6069 47.7447 73.0576L50.0398 75.3527C50.4903 75.8 51.081 76.0784 51.7125 76.141C52.344 76.2036 52.9778 76.0466 53.5073 75.6965L54.6356 74.9429C55.0705 75.1495 55.5159 75.3331 55.9701 75.493L56.2367 76.8268C56.3612 77.4503 56.6978 78.0114 57.1892 78.4145C57.6805 78.8176 58.2963 79.038 58.9317 79.0381H62.1751C62.8104 79.0381 63.426 78.8179 63.9173 78.415C64.4086 78.0122 64.7454 77.4514 64.8702 76.8282L65.1368 75.493C65.591 75.3331 66.0364 75.1495 66.4713 74.9429L67.5996 75.6965C68.129 76.0475 68.7632 76.205 69.3951 76.1424C70.0271 76.0797 70.6181 75.8008 71.0684 75.3527L73.3621 73.0562C73.8096 72.6058 74.0882 72.0147 74.1508 71.3826C74.2134 70.7506 74.0562 70.1163 73.7057 69.5868L72.9526 68.4578C73.1591 68.0226 73.3426 67.5769 73.5023 67.1225ZM72.456 70.4163L72.4548 70.4146L71.2329 68.5828L71.5975 67.8146C71.7814 67.427 71.9449 67.0299 72.0872 66.6251L72.3704 65.8193L74.5411 65.3849C74.8239 65.3283 75.0788 65.1754 75.2619 64.9519C75.4451 64.7285 75.5453 64.4483 75.5453 64.1591V60.9138C75.5453 60.6246 75.4452 60.3444 75.2622 60.121C75.0793 59.8977 74.8249 59.7447 74.5424 59.688L72.3705 59.2538L72.0872 58.4477C71.9449 58.0429 71.7814 57.6459 71.5975 57.2582L71.2329 56.49L72.4548 54.6583L72.4559 54.6566C72.6153 54.4149 72.6868 54.1256 72.6582 53.8373C72.6297 53.549 72.5029 53.2795 72.2995 53.0739L72.2979 53.0723L70.0088 50.7832L70.0078 50.7822C69.8026 50.5785 69.5338 50.4518 69.2465 50.4233C68.9593 50.3949 68.6711 50.4662 68.4302 50.6254L68.4286 50.6265L66.5964 51.8501L65.8275 51.4848C65.4402 51.3007 65.0434 51.1372 64.6389 50.9948L63.8333 50.7114L63.3993 48.54C63.3426 48.2564 63.1895 48.0012 62.9662 47.818C62.7431 47.6349 62.4635 47.5349 62.1751 47.5348H58.9317C58.6434 47.5348 58.3638 47.6347 58.1406 47.8177C57.9174 48.0008 57.7642 48.2557 57.7075 48.5392L57.2737 50.7113L56.468 50.9948C56.0634 51.1372 55.6667 51.3007 55.2793 51.4848L54.5104 51.8501L52.6783 50.6265L52.6766 50.6254C52.4355 50.4661 52.147 50.3947 51.8596 50.4232C51.5722 50.4517 51.3032 50.5784 51.0979 50.7821L51.0966 50.7834L48.8088 53.0738L48.8077 53.075C48.6041 53.2804 48.4773 53.5498 48.4488 53.838C48.4203 54.1261 48.4916 54.415 48.6508 54.6564L48.652 54.6583L49.874 56.49L49.5094 57.2582C49.3254 57.6459 49.162 58.0429 49.0197 58.4477L48.7364 59.2536L46.5658 59.688C46.2829 59.7445 46.028 59.8975 45.8449 60.1209C45.6618 60.3444 45.5616 60.6245 45.5615 60.9138V64.1591C45.5615 64.4483 45.6616 64.7284 45.8447 64.9519C46.0276 65.1753 46.2821 65.3282 46.5647 65.3849L48.7364 65.8191L49.0197 66.6251C49.162 67.0299 49.3254 67.427 49.5094 67.8146L49.874 68.5828L48.6521 70.4145L48.6509 70.4163C48.4916 70.658 48.4201 70.9472 48.4486 71.2356C48.4772 71.5239 48.604 71.7935 48.8076 71.9992L48.809 72.0005L51.0968 74.2883L51.0982 74.2897C51.3038 74.4933 51.5729 74.6198 51.8605 74.6483C52.1478 74.6768 52.4362 74.6057 52.6775 74.4469L52.6798 74.4454L54.5104 73.2227L55.2793 73.5881C55.6667 73.7721 56.0635 73.9357 56.468 74.078L57.2736 74.3615L57.7076 76.5328C57.7642 76.8165 57.9174 77.0717 58.1406 77.2549C58.3638 77.438 58.6434 77.538 58.9317 77.5381H62.1751C62.4635 77.5381 62.743 77.4381 62.9662 77.2551C63.1894 77.0721 63.3425 76.8174 63.3993 76.534L63.8331 74.3616L64.6389 74.078C65.0434 73.9357 65.4401 73.7721 65.8275 73.5881L66.5964 73.2227L68.4285 74.4463L68.4304 74.4476C68.6715 74.6068 68.9599 74.6781 69.2472 74.6497C69.5347 74.6212 69.8037 74.4945 70.009 74.2908L70.0103 74.2895L72.298 71.999L72.2992 71.9978C72.5027 71.7924 72.6295 71.523 72.6581 71.2348C72.6866 70.9468 72.6152 70.6578 72.456 70.4163ZM61.3036 54.2849C61.304 54.6991 60.9685 55.0352 60.5543 55.0356C58.5668 55.0376 56.6612 55.8285 55.2557 57.2348C53.8502 58.6412 53.0596 60.5481 53.0576 62.5372C53.0572 62.9514 52.7211 63.2869 52.3069 63.2865C51.8927 63.286 51.5572 62.9499 51.5576 62.5357C51.56 60.1496 52.5084 57.8619 54.1947 56.1745C55.8811 54.4871 58.1677 53.538 60.5528 53.5356C60.967 53.5352 61.3032 53.8707 61.3036 54.2849ZM69.5487 62.537C69.5491 62.1228 69.2136 61.7867 68.7994 61.7863C68.3852 61.7858 68.0491 62.1213 68.0487 62.5355C68.0467 64.5246 67.2561 66.4315 65.8506 67.8379C64.4451 69.2442 62.5395 70.0351 60.552 70.0371C60.1378 70.0375 59.8023 70.3736 59.8027 70.7878C59.8031 71.202 60.1393 71.5375 60.5535 71.5371C62.9386 71.5347 65.2252 70.5856 66.9116 68.8982C68.5979 67.2109 69.5463 64.9231 69.5487 62.537Z" fill="black"/>
<defs>
<filter id="filter0_bd_951_692" x="26.1074" y="28.073" width="78.8926" height="78.927" filterUnits="userSpaceOnUse" color-interpolation-filters="sRGB">
<feFlood flood-opacity="0" result="BackgroundImageFix"/>
<feGaussianBlur in="BackgroundImageFix" stdDeviation="2.5"/>
<feComposite in2="SourceAlpha" operator="in" result="effect1_backgroundBlur_951_692"/>
<feColorMatrix in="SourceAlpha" type="matrix" values="0 0 0 0 0 0 0 0 0 0 0 0 0 0 0 0 0 0 127 0" result="hardAlpha"/>
<feOffset dx="5" dy="5"/>
<feGaussianBlur stdDeviation="5"/>
<feComposite in2="hardAlpha" operator="out"/>
<feColorMatrix type="matrix" values="0 0 0 0 0 0 0 0 0 0 0 0 0 0 0 0 0 0 0.05 0"/>
<feBlend mode="normal" in2="effect1_backgroundBlur_951_692" result="effect2_dropShadow_951_692"/>
<feBlend mode="normal" in="SourceGraphic" in2="effect2_dropShadow_951_692" result="shape"/>
</filter>
</defs>
</svg>
