<svg width="110" height="106" viewBox="0 0 110 106" fill="none" xmlns="http://www.w3.org/2000/svg">
<g clip-path="url(#clip0_951_700)">
<path d="M34.5803 24.187C29.8037 21.9163 24.0425 22.9157 19.0561 24.7786C13.2506 26.9543 7.77644 30.5701 4.48162 33.2498C4.1793 33.4957 3.95497 33.8223 3.83541 34.1908C3.71585 34.5592 3.7061 34.9538 3.80734 35.3276L15.424 78.1669C15.5124 78.4927 15.6822 78.7913 15.9177 79.0355C16.1532 79.2796 16.447 79.4615 16.7721 79.5644C17.0971 79.6673 17.4431 79.688 17.7784 79.6245C18.1137 79.561 18.4274 79.4155 18.691 79.2011C21.7448 76.7229 26.8374 73.3668 32.1177 71.3886C37.521 69.3652 42.4175 69.0247 45.7466 71.4408C45.9929 71.6193 46.2767 71.7409 46.5769 71.7966C46.8771 71.8523 47.1862 71.8406 47.4813 71.7625C47.7764 71.6844 48.0499 71.5417 48.2817 71.3452C48.5136 71.1486 48.6978 70.9031 48.8208 70.6268C50.4813 66.8896 54.8941 64.7654 60.5934 63.8491C66.1713 62.9525 72.2837 63.3418 76.1784 63.9803C76.5151 64.0357 76.8605 64.0067 77.183 63.8961C77.5054 63.7854 77.7946 63.5965 78.0241 63.3468C78.2535 63.0971 78.4159 62.7945 78.4963 62.4667C78.5767 62.1389 78.5726 61.7963 78.4844 61.4705L66.8677 18.6312C66.7662 18.2575 66.5581 17.9206 66.2681 17.6606C65.9782 17.4006 65.6186 17.2285 65.2324 17.165C61.023 16.4721 54.4527 16.0454 48.324 17.0294C43.062 17.8758 37.568 19.8605 34.5803 24.187Z" fill="#40BFEF"/>
<g filter="url(#filter0_bd_951_700)">
<path d="M54.4706 42.1273C50.4515 38.7123 44.6248 38.2043 39.3204 38.7285C33.1428 39.3453 26.9081 41.4379 23.0237 43.1837C22.6672 43.3438 22.365 43.602 22.153 43.9273C21.941 44.2526 21.8282 44.6313 21.8281 45.0182V89.3687C21.8282 89.706 21.914 90.0379 22.0775 90.3339C22.241 90.63 22.4771 90.8808 22.7642 91.0633C23.0512 91.2459 23.38 91.3543 23.7205 91.3788C24.061 91.4032 24.4022 91.3428 24.7129 91.2032C28.3117 89.5904 34.1098 87.6511 39.7284 87.0907C45.4776 86.5182 50.2964 87.4415 52.8792 90.6266C53.0704 90.8621 53.3126 91.0521 53.5881 91.1827C53.8635 91.3132 54.1651 91.381 54.4706 91.381C54.776 91.381 55.0776 91.3132 55.3531 91.1827C55.6285 91.0521 55.8707 90.8621 56.0619 90.6266C58.6447 87.4415 63.4636 86.5182 69.2086 87.0907C74.8313 87.6511 80.6335 89.5904 84.2282 91.2032C84.5389 91.3428 84.8802 91.4032 85.2206 91.3788C85.5611 91.3543 85.8899 91.2459 86.1769 91.0633C86.464 90.8808 86.7001 90.63 86.8636 90.3339C87.0272 90.0379 87.1129 89.706 87.113 89.3687V45.0182C87.1129 44.6313 87.0001 44.2526 86.7881 43.9273C86.5761 43.602 86.2739 43.3438 85.9175 43.1837C82.033 41.4379 75.7983 39.3453 69.6207 38.7285C64.3163 38.2003 58.4897 38.7123 54.4706 42.1273Z" fill="white" fill-opacity="0.7" shape-rendering="crispEdges"/>
</g>
<path fill-rule="evenodd" clip-rule="evenodd" d="M71.2647 54.0226C72.2107 53.0878 73.744 53.0878 74.69 54.0226L76.7856 56.0934C77.7302 57.0239 77.7524 58.5652 76.7439 59.4854L75.1586 61.0484C74.8663 61.3365 74.3968 61.3362 74.1049 61.0478L69.6726 56.6681C69.5302 56.5274 69.4499 56.3355 69.4497 56.1353C69.4496 55.935 69.5295 55.743 69.6717 55.602L71.2647 54.0226ZM72.319 55.0896L71.2659 56.1337L74.6326 59.4605L75.7021 58.4062C75.7104 58.398 75.7188 58.39 75.7275 58.3823C76.0773 58.0681 76.0952 57.5188 75.733 57.1621L75.7322 57.1612L73.6357 55.0896C73.2741 54.7324 72.6808 54.7327 72.319 55.0896ZM68.8353 57.2272C68.8616 57.2471 68.887 57.269 68.9111 57.2928L73.4257 61.7538C73.5683 61.8947 73.6485 62.0869 73.6485 62.2873C73.6485 62.4878 73.5683 62.6799 73.4257 62.8208L66.5663 69.5987C64.6113 71.5309 62.0532 72.747 59.3096 73.0452L59.3069 73.0455C58.3038 73.1508 57.4508 72.3032 57.5591 71.2991L57.5595 71.2952C57.8664 68.5825 59.0977 66.051 61.0476 64.1228L65.075 60.0501L67.307 57.8378L65.9397 56.5205C65.7856 56.4565 65.1348 56.2883 64.2092 57.2029C62.9479 58.4493 61.4056 59.7928 60.7895 60.3111C60.4726 60.5778 59.9994 60.537 59.7328 60.22C59.4661 59.9031 59.5069 59.43 59.8238 59.1633C60.4231 58.659 61.9325 57.3438 63.1549 56.136C64.6048 54.7033 66.078 54.7994 66.8105 55.2925C66.8467 55.3168 66.8807 55.3443 66.9121 55.3745L68.8353 57.2272ZM68.3847 58.8815L66.1336 61.1128L62.1051 65.1868C60.3966 66.875 59.3193 69.0901 59.0504 71.4609L59.0505 71.4599L58.3048 71.3795L59.05 71.4638L59.0504 71.4609C59.0482 71.4829 59.0549 71.5057 59.076 71.5267C59.097 71.5477 59.122 71.5564 59.1495 71.5537C61.5565 71.2917 63.7989 70.2248 65.5119 68.5319L71.8315 62.2873L68.3847 58.8815ZM32.4766 54.7175C32.4766 54.3033 32.8123 53.9675 33.2266 53.9675H50.3809C50.7951 53.9675 51.1309 54.3033 51.1309 54.7175C51.1309 55.1317 50.7951 55.4675 50.3809 55.4675H33.2266C32.8123 55.4675 32.4766 55.1317 32.4766 54.7175ZM32.4766 62.0979C32.4766 61.6837 32.8123 61.3479 33.2266 61.3479H50.3809C50.7951 61.3479 51.1309 61.6837 51.1309 62.0979C51.1309 62.5121 50.7951 62.8479 50.3809 62.8479H33.2266C32.8123 62.8479 32.4766 62.5121 32.4766 62.0979ZM33.2266 68.7284C32.8123 68.7284 32.4766 69.0642 32.4766 69.4784C32.4766 69.8926 32.8123 70.2284 33.2266 70.2284H50.3809C50.7951 70.2284 51.1309 69.8926 51.1309 69.4784C51.1309 69.0642 50.7951 68.7284 50.3809 68.7284H33.2266Z" fill="black"/>
</g>
<defs>
<filter id="filter0_bd_951_700" x="16.8281" y="33.5505" width="85.2852" height="72.8335" filterUnits="userSpaceOnUse" color-interpolation-filters="sRGB">
<feFlood flood-opacity="0" result="BackgroundImageFix"/>
<feGaussianBlur in="BackgroundImageFix" stdDeviation="2.5"/>
<feComposite in2="SourceAlpha" operator="in" result="effect1_backgroundBlur_951_700"/>
<feColorMatrix in="SourceAlpha" type="matrix" values="0 0 0 0 0 0 0 0 0 0 0 0 0 0 0 0 0 0 127 0" result="hardAlpha"/>
<feOffset dx="5" dy="5"/>
<feGaussianBlur stdDeviation="5"/>
<feComposite in2="hardAlpha" operator="out"/>
<feColorMatrix type="matrix" values="0 0 0 0 0 0 0 0 0 0 0 0 0 0 0 0 0 0 0.05 0"/>
<feBlend mode="normal" in2="effect1_backgroundBlur_951_700" result="effect2_dropShadow_951_700"/>
<feBlend mode="normal" in="SourceGraphic" in2="effect2_dropShadow_951_700" result="shape"/>
</filter>
<clipPath id="clip0_951_700">
<rect width="110" height="106" fill="white"/>
</clipPath>
</defs>
</svg>
