<?xml version="1.0" encoding="UTF-8"?> <svg xmlns="http://www.w3.org/2000/svg" width="60" height="36" viewBox="0 0 60 36" fill="none"><path d="M51.6768 5.3423C51.6768 3.47232 51.6768 2.53733 51.3129 1.82309C50.9928 1.19483 50.482 0.684037 49.8538 0.363922C49.1395 0 48.2045 0 46.3345 0H5.3423C3.47232 0 2.53733 0 1.82309 0.363922C1.19483 0.684037 0.684037 1.19483 0.363922 1.82309C0 2.53733 0 3.47232 0 5.3423V15.4388C0 17.3088 0 18.2438 0.363922 18.958C0.684037 19.5863 1.19483 20.0971 1.82309 20.4172C2.53733 20.7811 3.47232 20.7811 5.3423 20.7811H9.13595C11.0059 20.7811 11.9409 20.7811 12.6552 21.145C13.2834 21.4651 13.7942 21.9759 14.1143 22.6042C14.4783 23.3184 14.4783 24.2534 14.4783 26.1234V29.8562C14.4783 31.7262 14.4783 32.6612 14.8422 33.3754C15.1623 34.0037 15.6731 34.5145 16.3013 34.8346C17.0156 35.1985 17.9506 35.1985 19.8205 35.1985H54.6577C56.5277 35.1985 57.4627 35.1985 58.1769 34.8346C58.8052 34.5145 59.316 34.0037 59.6361 33.3754C60 32.6612 60 31.7262 60 29.8562V18.6832C60 17.9187 60 17.5365 59.9377 17.2185C59.6767 15.8864 58.6352 14.845 57.3031 14.5839C56.9851 14.5216 56.6029 14.5216 55.8384 14.5216C55.074 14.5216 54.6917 14.5216 54.3737 14.4593C53.0417 14.1983 52.0002 13.1568 51.7392 11.8248C51.6768 11.5068 51.6768 11.1245 51.6768 10.3601V5.3423Z" fill="#F4354B"></path><path d="M31.189 4.27424C30.6862 4.75837 30.3883 5.52182 30.3883 6.5832V6.63906H28.9545V8.24044H30.3883V14.4784H32.0827V8.24044H34.5407V6.63906H32.0827C32.0827 6.61276 32.0829 6.58687 32.0832 6.56141C32.0833 6.55195 32.0835 6.54256 32.0836 6.53321C32.0926 6.01578 32.17 5.67428 32.362 5.44734C32.5669 5.20527 32.8834 5.09355 33.4421 5.09355C33.7586 5.09355 34.131 5.14941 34.4848 5.26113L34.5965 5.29837L34.8945 3.8832C34.3358 3.62251 33.8703 3.56665 33.2558 3.56665C32.4179 3.56665 31.6917 3.7901 31.189 4.27424Z" fill="white"></path><path d="M19.7186 6.50872L19.7558 6.52734V8.25906L19.6814 8.24044C19.6739 8.24044 19.6665 8.24038 19.6591 8.24027C19.6071 8.23947 19.5545 8.23605 19.498 8.23237C19.4883 8.23174 19.4785 8.2311 19.4686 8.23047C19.3992 8.22605 19.3232 8.22182 19.2345 8.22182C18.5083 8.22182 17.8938 8.42665 17.4469 8.85492C17 9.2832 16.7207 9.93492 16.7207 10.8846V14.4784H15.0262V6.63906H16.7207V7.96113C16.7457 7.91389 16.7716 7.86766 16.7983 7.82246C16.8388 7.75409 16.8813 7.68807 16.9257 7.62447C17.4422 6.88491 18.2243 6.47148 19.2345 6.47148C19.4393 6.47148 19.6069 6.47148 19.7186 6.50872Z" fill="white"></path><path d="M45.139 12.6908L45.4742 14.0873C45.0459 14.348 44.1521 14.646 43.2583 14.6646C42.4576 14.6646 41.7314 14.4039 41.21 13.8825C40.6887 13.3611 40.3721 12.5604 40.3721 11.4804V8.25906H38.9383V6.65768H40.3721V4.90734L42.0666 4.53493V6.65768H44.8597V8.25906H42.0666V11.3873C42.0666 11.9273 42.1969 12.3556 42.439 12.6349C42.6811 12.9142 43.0349 13.0632 43.519 13.0632C43.9831 13.0632 44.4985 12.9092 45.0652 12.716C45.0878 12.7084 45.1105 12.7006 45.1332 12.6928C45.1351 12.6921 45.1371 12.6914 45.139 12.6908Z" fill="white"></path><path fill-rule="evenodd" clip-rule="evenodd" d="M7.82176 7.72674C7.79573 7.76089 7.77031 7.79558 7.74551 7.83079V6.63906H6.05103V17.2156H7.72689V13.3053C7.75213 13.3395 7.77802 13.3732 7.80454 13.4065C7.85382 13.4683 7.90528 13.5284 7.95888 13.5866C8.53601 14.2139 9.36085 14.6273 10.371 14.6273C12.4752 14.6273 14.0021 12.9329 14.0021 10.5494C14.0021 8.16596 12.4565 6.47148 10.3896 6.47148C9.28566 6.47148 8.40303 6.96527 7.82317 7.7249C7.8227 7.72551 7.82223 7.72613 7.82176 7.72674ZM12.289 10.568C12.289 11.2942 12.0469 11.9087 11.6558 12.337C11.2462 12.7653 10.6876 13.026 10.0359 13.026C8.7324 13.026 7.72689 12.0204 7.72689 10.568C7.72689 9.11561 8.71378 8.1101 10.0359 8.1101C10.7062 8.1101 11.2648 8.37078 11.6558 8.79906C12.0469 9.22734 12.289 9.84182 12.289 10.568Z" fill="white"></path><path fill-rule="evenodd" clip-rule="evenodd" d="M24.2993 6.4901C26.5524 6.4901 28.3586 8.2032 28.3586 10.568C28.3586 12.9142 26.571 14.646 24.2993 14.646C22.0276 14.646 20.24 12.8956 20.24 10.568C20.24 8.22182 22.0648 6.4901 24.2993 6.4901ZM24.2993 8.1101C22.9958 8.1101 21.9531 9.11561 21.9531 10.568C21.9531 12.0204 22.9772 13.026 24.2993 13.026C25.6214 13.026 26.6455 12.0204 26.6455 10.568C26.6455 9.11561 25.6027 8.1101 24.2993 8.1101Z" fill="white"></path><path d="M37.8583 4.8701C37.8583 4.27424 37.3928 3.84596 36.7597 3.84596C36.1638 3.84596 35.6797 4.27424 35.6797 4.8701C35.6797 5.48458 36.1452 5.93148 36.7597 5.93148C37.3928 5.93148 37.8583 5.48458 37.8583 4.8701Z" fill="white"></path><path d="M35.9218 14.4784V6.63906H37.6163V14.4784H35.9218Z" fill="white"></path><path fill-rule="evenodd" clip-rule="evenodd" d="M22.2538 23.3123C22.2277 23.3465 22.2023 23.3812 22.1775 23.4164V19.7295H20.483V30.0826H22.1589V28.8909C22.1841 28.9251 22.21 28.9588 22.2365 28.9921C22.2858 29.0539 22.3373 29.114 22.3909 29.1722C22.968 29.7995 23.7929 30.2129 24.803 30.2129C26.9072 30.2129 28.4341 28.5185 28.4341 26.135C28.4341 23.7516 26.8886 22.0571 24.8217 22.0571C23.7177 22.0571 22.835 22.5509 22.2552 23.3105C22.2547 23.3111 22.2542 23.3117 22.2538 23.3123ZM26.721 26.1722C26.721 26.8985 26.4789 27.5129 26.0879 27.9412C25.6968 28.3695 25.1382 28.6302 24.4679 28.6302C23.1644 28.6302 22.1589 27.6247 22.1589 26.1722C22.1589 24.7198 23.1458 23.7143 24.4679 23.7143C25.1382 23.7143 25.6968 23.975 26.0879 24.4033C26.4789 24.8316 26.721 25.446 26.721 26.1722Z" fill="white"></path><path fill-rule="evenodd" clip-rule="evenodd" d="M35.3097 29.0484C35.3357 29.015 35.3611 28.9811 35.3859 28.9467V30.1012H37.0804V22.2619H35.3673V23.4722C35.342 23.4364 35.3162 23.4011 35.2897 23.3663L35.2896 23.3662C35.2405 23.3017 35.1893 23.2391 35.1361 23.1786C34.5622 22.5264 33.7496 22.1129 32.7231 22.1129C30.6563 22.1129 29.1107 23.8074 29.1107 26.1909C29.1107 28.5743 30.6376 30.2688 32.7418 30.2688C33.8457 30.2688 34.7284 29.7921 35.3082 29.0502C35.3087 29.0496 35.3092 29.049 35.3097 29.0484ZM35.3859 26.1722C35.3859 27.6247 34.399 28.6302 33.077 28.6302C32.4252 28.6302 31.8666 28.3695 31.4569 27.9412C31.0659 27.5129 30.8238 26.8985 30.8238 26.1722C30.8238 25.446 31.0659 24.8316 31.4569 24.4033C31.8666 23.975 32.4252 23.7143 33.077 23.7143C34.3804 23.7143 35.3859 24.7198 35.3859 26.1722Z" fill="white"></path><path d="M39.5601 27.5316L39.5415 27.4943H37.8098L37.8656 27.5688C37.9052 27.7829 37.9631 27.9857 38.0381 28.1767C38.5633 29.5132 39.9279 30.2688 41.7201 30.2688C42.6325 30.2688 43.4704 30.064 44.0849 29.6357C44.6994 29.226 45.0904 28.5929 45.0904 27.7364C45.0904 27.3454 45.016 27.0288 44.867 26.7681C44.718 26.5074 44.476 26.284 44.1967 26.1164C43.6194 25.7812 42.7815 25.5578 41.7387 25.3157C41.0498 25.1481 40.6029 25.0364 40.3236 24.906C40.1746 24.8502 40.0815 24.7757 40.0256 24.7012C39.9698 24.6267 39.9511 24.5336 39.9511 24.4219C39.9511 24.1798 40.0815 23.975 40.3422 23.826C40.6215 23.6771 41.0125 23.584 41.5153 23.584C41.9994 23.584 42.3905 23.6585 42.6698 23.8074C42.9491 23.9564 43.1353 24.1798 43.247 24.4778L43.2656 24.515H44.9787L44.9601 24.4405C44.952 24.3963 44.9429 24.3525 44.9331 24.3092C44.7847 23.6591 44.4399 23.1103 43.8987 22.7088C43.3215 22.2991 42.5394 22.0571 41.5339 22.0571C40.5656 22.0571 39.7277 22.2805 39.1505 22.7088C38.5546 23.1371 38.2194 23.7702 38.2194 24.5709C38.2194 24.906 38.2753 25.1854 38.4056 25.4274C38.536 25.6695 38.7222 25.8743 38.9829 26.0419C39.4856 26.3957 40.2677 26.6378 41.3477 26.8985C41.3558 26.9008 41.364 26.9031 41.3721 26.9054C41.4943 26.9403 41.6154 26.9741 41.7201 26.9916C42.2043 27.1033 42.5767 27.1964 42.8374 27.3081C43.0049 27.3826 43.1353 27.4571 43.2098 27.5502C43.2843 27.6433 43.3215 27.755 43.3215 27.904C43.3215 28.1647 43.1911 28.3695 42.9118 28.5185C42.6325 28.6674 42.2229 28.7419 41.7201 28.7419C41.0498 28.7419 40.5656 28.6488 40.2305 28.444C39.8767 28.2391 39.6718 27.9412 39.5601 27.5316Z" fill="white"></path><path fill-rule="evenodd" clip-rule="evenodd" d="M49.9909 28.7605C49.3578 28.7605 48.7991 28.5557 48.3895 28.2019C47.9958 27.8619 47.7397 27.3843 47.6542 26.7527C47.6507 26.727 47.6476 26.7011 47.6446 26.675H53.9012V26.6191C53.9943 25.3343 53.6219 24.2171 52.9329 23.3978C52.244 22.5785 51.2198 22.0943 49.9536 22.0943C47.5888 22.0943 45.9129 23.826 45.9129 26.1909C45.9129 28.5557 47.6074 30.2688 49.9909 30.2688C51.6657 30.2688 53.1546 29.4319 53.7697 27.6837L53.7709 27.6805L53.7895 27.606H52.0205L52.0019 27.6433C51.6481 28.3695 50.9033 28.7605 49.9909 28.7605ZM49.9536 23.584C51.0232 23.584 51.7751 24.237 52.0547 25.1822C52.0623 25.2079 52.0695 25.2337 52.0764 25.2598H47.7378C47.7727 25.1388 47.8154 25.0218 47.8658 24.9098C48.2184 24.1257 48.9435 23.584 49.9536 23.584Z" fill="white"></path></svg> 