<svg width="997" height="187" viewBox="0 0 997 187" fill="none" xmlns="http://www.w3.org/2000/svg">
<path d="M293.754 35.5641H245.053V88.9717H293.573C300.573 88.9717 306.004 86.3164 309.867 81.0058C313.729 75.5745 315.66 69.2381 315.66 61.9963C315.66 54.6339 313.729 48.4181 309.867 43.349C306.125 38.1591 300.754 35.5641 293.754 35.5641ZM313.668 146L291.581 100.739H245.053V146H232.199V23.7964H294.659C304.918 23.7964 313.186 27.5379 319.462 35.021C325.859 42.5041 329.057 51.3752 329.057 61.6343C329.057 69.9622 326.885 77.7471 322.539 84.9888C318.194 92.1098 312.22 96.8772 304.616 99.2911L327.428 146H313.668Z" fill="black"/>
<path d="M357.269 37.1935C354.613 37.1935 352.441 36.2883 350.751 34.4779C348.941 32.6674 348.035 30.4949 348.035 27.9603C348.035 25.5464 348.941 23.4343 350.751 21.6238C352.441 19.8134 354.613 18.9082 357.269 18.9082C359.682 18.9082 361.795 19.8134 363.605 21.6238C365.295 23.555 366.14 25.6671 366.14 27.9603C366.14 30.3742 365.295 32.5467 363.605 34.4779C361.795 36.2883 359.682 37.1935 357.269 37.1935ZM350.57 146V56.384H362.881V146H350.57Z" fill="black"/>
<path d="M435.076 65.6172C422.403 65.6172 411.48 72.4968 402.307 86.2561V146H389.996V56.384H398.867L401.04 73.0399C410.454 60.367 422.403 54.0305 436.886 54.0305C448.232 54.0305 457.284 57.5306 464.043 64.5309C470.922 71.4106 474.362 80.4023 474.362 91.5063V146H462.232V92.9546C462.232 84.7474 459.698 78.1695 454.628 73.221C449.68 68.1518 443.162 65.6172 435.076 65.6172Z" fill="black"/>
<path d="M564.585 75.9366C557.947 68.8156 549.86 65.2551 540.325 65.2551C530.79 65.2551 522.824 68.876 516.428 76.1177C510.031 83.2387 506.832 91.5666 506.832 101.102C506.832 110.757 510.031 119.206 516.428 126.448C522.824 133.569 530.79 137.129 540.325 137.129C549.981 137.129 558.067 133.569 564.585 126.448C571.223 119.206 574.542 110.757 574.542 101.102C574.542 91.3253 571.223 82.9369 564.585 75.9366ZM541.593 184.743C527.954 184.743 513.893 181.666 499.41 175.51L503.393 165.734C515.824 171.165 528.256 173.881 540.687 173.881C550.705 173.881 558.671 171.286 564.585 166.096C570.62 160.906 573.637 153.483 573.637 143.828V132.241C569.413 137.189 564.223 141.112 558.067 144.009C552.033 146.905 545.817 148.354 539.42 148.354C526.506 148.354 515.703 143.707 507.013 134.413C498.323 125.12 493.978 114.016 493.978 101.102C493.978 88.1872 498.384 77.1436 507.194 67.9708C516.005 58.6772 526.807 54.0305 539.601 54.0305C553.602 54.0305 565.43 59.7635 575.085 71.2295L577.62 56.384H585.948V143.828C585.948 157.225 581.905 167.363 573.818 174.243C565.732 181.243 554.99 184.743 541.593 184.743Z" fill="black"/>
<path d="M685.538 134.957C676.607 143.888 665.624 148.354 652.589 148.354C639.554 148.354 628.631 143.828 619.82 134.775C611.009 125.723 606.604 114.68 606.604 101.645C606.604 88.3682 611.009 77.1436 619.82 67.9708C628.631 58.6772 639.554 54.0305 652.589 54.0305C665.865 54.0305 676.909 58.6772 685.719 67.9708C694.53 77.2643 698.936 88.4889 698.936 101.645C698.936 114.8 694.47 125.904 685.538 134.957ZM652.589 137.129C662.365 137.129 670.391 133.689 676.667 126.81C682.943 119.809 686.082 111.421 686.082 101.645C686.082 94.403 684.271 87.8251 680.65 81.911C677.15 75.8763 672.202 71.2295 665.805 67.9708C661.701 66.1603 657.296 65.2551 652.589 65.2551C642.933 65.2551 634.967 68.876 628.691 76.1177C622.536 83.3594 619.458 91.8684 619.458 101.645C619.458 108.766 621.208 115.404 624.708 121.559C628.329 127.715 633.338 131.999 639.735 134.413C643.718 136.224 648.002 137.129 652.589 137.129Z" fill="black"/>
<path d="M710.675 135.862L715.744 126.448C728.055 133.689 741.271 137.31 755.393 137.31C762.272 137.31 767.402 135.982 770.781 133.327C774.281 130.672 775.911 127.413 775.669 123.551C775.549 121.378 774.885 119.387 773.678 117.576C772.592 115.766 771.385 114.378 770.057 113.412C768.729 112.447 766.798 111.481 764.264 110.516C761.85 109.55 759.919 108.947 758.47 108.705C757.143 108.343 755.151 107.86 752.496 107.257C747.789 106.171 743.745 105.084 740.366 103.998C737.107 102.912 733.426 101.343 729.322 99.2911C725.219 97.2393 722.02 94.584 719.727 91.3252C717.555 87.9458 716.468 84.0835 716.468 79.7385C716.468 71.0485 719.788 64.5913 726.426 60.367C733.185 56.1426 741.151 54.0305 750.323 54.0305C753.341 54.0305 756.479 54.2115 759.738 54.5736C766.014 55.6599 772.29 57.2892 778.566 59.4618C781.825 60.9101 784.42 62.2981 786.351 63.6257L781.644 72.8589C772.592 67.669 762.514 65.0741 751.41 65.0741C744.771 65.0741 739.34 66.281 735.116 68.6949C730.891 71.3502 728.84 74.9107 728.96 79.3764C729.202 83.118 730.891 86.1354 734.03 88.4286C737.288 90.8425 743.263 93.015 751.953 94.9461C756.539 95.9117 760.522 96.9376 763.902 98.0238C767.402 99.1101 771.204 100.739 775.307 102.912C779.532 104.964 782.79 107.679 785.084 111.059C787.377 114.318 788.523 118.12 788.523 122.465C788.644 126.327 787.92 129.767 786.351 132.784C780.799 143.164 769.876 148.354 753.582 148.354C737.892 148.354 723.589 144.19 710.675 135.862Z" fill="black"/>
<path d="M846.857 137.31V148.354C839.254 148.354 832.313 147.026 826.037 144.371C819.882 141.595 815.718 137.069 813.545 130.793C812.097 127.413 811.373 123.49 811.373 119.025V67.2466H800.872V56.384H811.373V33.5726L823.684 28.3224V56.384H845.228V64.5309L843.417 67.2466H823.684V118.663C823.563 124.094 825.253 128.56 828.753 132.06C832.253 135.56 838.288 137.31 846.857 137.31Z" fill="black"/>
<path d="M873.258 133.327C877 136.224 881.828 137.672 887.742 137.672C893.656 137.672 898.966 136.465 903.674 134.051C908.381 131.637 913.872 128.077 920.148 123.37V99.4722L892.811 102.007C890.276 102.248 887.018 102.731 883.035 103.455C872.896 105.869 867.827 111.481 867.827 120.292C867.827 126.085 869.638 130.43 873.258 133.327ZM923.95 146L921.054 133.146C907.777 143.284 895.647 148.354 884.664 148.354C874.888 148.354 867.465 145.638 862.396 140.207C857.327 135.5 854.792 129.042 854.792 120.835C854.792 111.542 858.051 104.662 864.568 100.196C871.207 95.7306 879.414 93.1357 889.19 92.4115L920.148 90.239V83.1783C920.148 70.9881 911.7 64.893 894.802 64.893C883.819 64.893 873.741 66.7035 864.568 70.3243L861.31 60.1859C872.172 56.0823 883.638 54.0305 895.708 54.0305C906.45 54.0305 915.2 56.2633 921.959 60.729C928.838 65.1948 932.278 72.4968 932.278 82.6352V146H923.95Z" fill="black"/>
<path d="M996.076 137.31V148.354C988.472 148.354 981.532 147.026 975.256 144.371C969.101 141.595 964.937 137.069 962.764 130.793C961.316 127.413 960.592 123.49 960.592 119.025V67.2466H950.091V56.384H960.592V33.5726L972.903 28.3224V56.384H994.447V64.5309L992.636 67.2466H972.903V118.663C972.782 124.094 974.472 128.56 977.972 132.06C981.472 135.56 987.507 137.31 996.076 137.31Z" fill="black"/>
<path d="M0 0H117.753C146.39 0 169.605 23.2147 169.605 51.8515V150.202C169.605 170.525 153.13 187 132.807 187H58.5421C26.2102 187 0 160.79 0 128.458V0Z" fill="white"/>
<path d="M13.8425 11.5513C17.0382 11.5513 20.0927 11.5513 23.1344 11.5513C28.093 11.49 33.0455 11.9199 37.9193 12.8348C42.3872 13.6288 46.6043 15.4669 50.2273 18.1994C52.6163 20.0887 54.545 22.4959 55.8678 25.2394C57.1907 27.9829 57.8731 30.991 57.8636 34.0368C58.0456 37.5976 57.567 41.1613 56.4518 44.5479C54.6818 49.2665 51.6279 53.3962 47.6348 56.4708C42.473 60.6163 36.615 63.8104 30.3344 65.9039C29.4103 66.2119 29.2691 66.7895 29.9365 67.5724C34.6595 72.9755 39.3568 78.3787 44.054 83.769C52.0625 92.8813 60.0839 101.981 68.1181 111.067C72.9565 116.535 77.8592 121.938 82.7233 127.367C82.8859 127.586 83.0318 127.818 83.1597 128.06L95.1724 118.165C94.8644 117.805 94.6077 117.471 94.3125 117.163C86.15 108.616 77.8977 100.145 69.8507 91.4952C63.3181 84.4621 57.0165 77.198 50.5995 70.0622C49.9962 69.3948 50.2914 69.1253 50.8946 68.7788C57.0833 64.8012 62.6057 59.8722 67.2582 54.1735C71.4355 48.9972 73.7861 42.586 73.9447 35.9362C74.3683 28.1202 72.7512 20.8818 67.8999 14.5674C63.9005 9.31765 58.4536 5.35177 52.2294 3.15782C48.8668 1.95141 45.4145 1.00169 41.9621 0.077629H43.2455C69.6196 0.077629 95.981 -0.140551 122.394 0.154634C141.966 0.35998 156.25 9.6519 165.093 27.1063C168.118 33.2247 169.661 39.9689 169.598 46.7939C169.598 50.1051 169.598 53.4163 169.598 56.7147V57.5874H161.191C155.801 57.5874 150.398 57.2794 145.02 57.4976C137.212 57.6568 129.496 59.2174 122.24 62.105C114.614 65.1282 108.223 70.6238 104.092 77.7113C98.8558 86.8107 98.612 102.584 110.099 112.71C114.77 116.636 119.95 119.913 125.499 122.451C130.838 125.018 136.293 127.431 141.645 130.023C145.779 131.867 149.585 134.373 152.913 137.441C159.33 143.781 159.946 152.175 154.466 159.375C152.409 161.811 149.909 163.836 147.099 165.343C139.85 169.86 131.474 172.244 122.933 172.222C101.975 172.222 81.0035 172.299 60.0454 172.222C50.6988 172.079 41.6083 169.146 33.9406 163.799C26.2729 158.453 20.378 150.937 17.0125 142.216C14.9001 136.702 13.8254 130.845 13.8425 124.941C13.8425 87.6107 13.8425 50.2762 13.8425 12.9374V11.5513Z" fill="#12B878"/>
<path d="M169.482 71.2567V130.294C168.763 129.511 168.198 128.895 167.621 128.253C164.87 125.218 161.671 122.622 158.136 120.553C151.708 116.86 145.099 113.493 138.333 110.465C134.483 108.63 130.825 106.512 127.18 104.33C124.292 102.649 121.829 100.326 119.98 97.541C118.232 94.7602 117.448 91.4811 117.75 88.2104C118.051 84.9396 119.421 81.8591 121.649 79.4449C125.499 75.1711 130.543 73.1561 135.997 71.8727C142.319 70.5195 148.803 70.0873 155.248 70.5893C158.457 70.7562 161.666 70.8717 164.861 71.0385C166.35 71 167.852 71.1412 169.482 71.2567Z" fill="#EA6862"/>
<path d="M125.782 117.418C163.75 121.6 173.284 158.9 140.668 172.95" stroke="white" stroke-width="7.96172"/>
</svg>
